<?xml version="1.0" standalone="no"?>
<!DOCTYPE svg PUBLIC "-//W3C//DTD SVG 20010904//EN"
 "http://www.w3.org/TR/2001/REC-SVG-20010904/DTD/svg10.dtd">
<svg version="1.0" xmlns="http://www.w3.org/2000/svg"
 width="260.000000pt" height="260.000000pt" viewBox="0 0 260.000000 260.000000"
 preserveAspectRatio="xMidYMid meet">
<metadata>
Created by potrace 1.14, written by Peter Selinger 2001-2017
</metadata>
<g transform="translate(0.000000,260.000000) scale(0.100000,-0.100000)"
fill="#000000" stroke="none">
<path d="M0 1300 l0 -1300 1300 0 1300 0 0 1300 0 1300 -1300 0 -1300 0 0
-1300z m2038 713 l-3 -118 -150 -27 c-82 -15 -165 -30 -182 -33 l-33 -6 0
-184 c0 -102 3 -185 8 -185 4 0 70 11 146 25 77 14 146 25 153 25 10 0 13 -27
13 -114 l0 -114 -97 -17 c-54 -9 -125 -22 -158 -28 l-60 -12 -3 -297 -2 -297
-53 -10 c-119 -23 -180 -32 -193 -27 -20 8 -21 1410 -1 1423 11 7 558 109 600
112 16 1 17 -9 15 -116z m-768 -138 c0 -63 -1 -115 -2 -115 -2 -1 -84 -15
-183 -33 l-180 -32 -3 -178 c-2 -138 0 -177 10 -177 7 0 74 11 148 25 74 14
141 25 148 25 9 0 12 -30 12 -115 0 -111 -1 -115 -22 -120 -13 -2 -77 -14
-143 -25 -66 -12 -128 -23 -137 -26 -16 -5 -18 -22 -18 -183 0 -98 2 -180 5
-183 3 -3 79 8 168 23 89 16 170 29 180 29 15 0 17 -12 17 -115 0 -111 -1
-115 -22 -120 -107 -24 -595 -102 -601 -96 -4 4 -6 326 -5 717 l3 709 285 51
c157 29 297 52 313 53 l27 1 0 -115z"/>
</g>
</svg>
